<?xml version="1.0" encoding="UTF-8"?> <svg xmlns="http://www.w3.org/2000/svg" version="1.1" id="Layer_1" x="0" y="0" viewBox="0 0 406 68.5" xml:space="preserve" width="260"><style>.st0{fill:#fff}</style><path class="st0" d="M0 45.3c.5 1.4 1 2.8 1.7 4.1V19.1C1 20.4.5 21.8 0 23.2v22.1zM7.5 10.8c-.6.6-1.2 1.3-1.7 1.9v43.1c.5.7 1.1 1.3 1.7 1.9V10.8zM20.4 58.6h3.7c.2 3.6 1.1 6.7 2.6 9.4.6.1 1.3.2 1.9.3-1.7-2.7-2.7-5.9-3-9.7H29.2c.3 4.1 1.8 7.5 4.1 9.9.7 0 1.4-.1 2.1-.1-2.6-2.2-4.3-5.6-4.6-9.8 1.2-.1 2.5-.2 3.7-.4.4 4.7 2.8 8 6.5 9.3l3-.9c-4.4-.3-7.6-3.5-8-8.7 4.2-.9 8-2.7 11.3-5l.2.1c3.1 1.1 4.8 3.3 4.9 6.1 0 1.4-.2 2.6-.7 3.6.7-.5 1.4-1 2.1-1.6.1-.7.2-1.4.1-2.1-.1-3.2-2-5.9-5.3-7.3 1-.8 1.9-1.7 2.7-2.6 3.5 1.7 5.6 4.7 6.1 8.6.4-.5.9-1 1.3-1.5-.8-3.7-3-6.6-6.3-8.4.8-.9 1.5-1.9 2.1-3 3.2 1.7 5.6 4.3 7 7.6.3-.5.7-1.1 1-1.6-1.5-3.2-4-5.7-7.2-7.3.6-1.1 1.1-2.2 1.5-3.3 3.1 1.5 5.7 3.7 7.5 6.5.2-.6.4-1.1.6-1.7-2-2.6-4.6-4.7-7.7-6.2.9-2.6 1.4-5.4 1.5-8.3v-.2c-.4-9.2-6.6-14.8-14.9-14.5-8.1.3-13.2 5.4-12.9 12.6.1 4.2 1.9 7.5 5 9.7-1.1.8-2.3 1.5-3.7 1.9-3.2-2.7-5-6.6-5.2-11.4-.3-9.4 6.3-16 16.6-16.3C54.3 11.9 62 19 62.4 30.4c0 .4.4.8.8.8s.8-.3.8-.8c-.4-12.4-8.8-20-20.5-19.6-11.2.4-18.4 7.6-18.1 17.9.2 4.9 1.9 8.8 4.8 11.7-.5.1-1 .1-1.4.1h-3.4c-2.3-3.2-3.6-7.1-3.7-11.7-.3-12.3 8.4-21.1 21.8-21.5 5.1-.2 9.7 1 13.5 3.2-1.1-1.2-2.4-2.3-3.7-3.3-1.8-.6-3.8-1-5.8-1.2-4.3-3.4-9.7-5.5-15.9-6-3.2.1-6.4.6-9.3 1.5H29c5.9 0 11.2 1.6 15.6 4.3h-1c-2.3.1-4.4.4-6.4.9-2.5-.8-5.3-1.3-8.2-1.3H19V2.7c-.6.2-1.1.5-1.7.8V65c.6.3 1.1.5 1.7.8V60c.2 2.3.7 4.4 1.3 6.3l1.8.6c-.9-2.5-1.5-5.2-1.7-8.3zM19 7h9.9c1.9 0 3.6.2 5.3.6-2.2.8-4.2 1.9-6 3.3H19V7zm0 5.4h7.4c-1.2 1.2-2.2 2.4-3.1 3.8H19v-3.8zm0 5.5h3.5c-1.6 3.2-2.4 6.9-2.2 11.1.2 4.5 1.4 8.4 3.5 11.7H19V17.9zm0 24.3h9.9c7.4 0 13.2-5.8 13.2-13 0-2.2-.6-4.3-1.5-6.1.9-.4 2-.7 3.2-.7h1.1c.7 2 1.2 4.6 1.2 6.8C46.1 38.5 38.9 46 29 46H19v-3.8zm18.5-13.9c-.1-1.7.6-3.2 1.7-4.2.8 1.6 1.3 3.3 1.3 5.2 0 1.3-.2 2.5-.6 3.7-1.5-1.1-2.4-2.7-2.4-4.7zM19 47.7h9.9c10.7 0 18.7-8.2 18.7-18.4 0-1.9-.4-4.5-1-6.3 2.7 1.1 4.6 3.7 4.9 7.6-.6 11.8-9.9 21-22.6 21H19v-3.9zm0 5.4h9.9c13.6 0 23.7-9.8 24.3-22.6-.2-6.3-4.3-9.8-9.5-9.6-4.9.2-7.9 3.1-7.8 7.4.1 2.5 1.2 4.6 3.4 5.9-.5 1.1-1.2 2.1-2.1 2.9-2.9-1.9-4.6-4.9-4.7-8.7-.2-6.3 4.3-10.9 11.4-11.1 7.5-.2 13 4.6 13.3 13C56.5 45.3 45 57 28.9 57H19v-3.9zM11.5 61.4c.6.4 1.1.8 1.7 1.2V5.8c-.6.4-1.1.8-1.7 1.2v54.4z"></path><g><path class="st0" d="M139.2 23.4c-1.9-1.1-4-1.6-6.3-1.6s-4.4.5-6.3 1.6c-1.9 1.1-3.3 2.6-4.4 4.5-1.1 1.9-1.6 4-1.6 6.4 0 2.4.5 4.5 1.6 6.4 1.1 1.9 2.5 3.4 4.4 4.5 1.9 1.1 4 1.6 6.3 1.6s4.4-.5 6.3-1.6c1.9-1.1 3.3-2.6 4.4-4.4 1.1-1.9 1.6-4 1.6-6.4 0-2.4-.5-4.5-1.6-6.4-1.1-2.1-2.5-3.5-4.4-4.6zm.7 15.2c-.7 1.3-1.6 2.3-2.9 3-1.2.7-2.6 1.1-4.1 1.1-1.5 0-2.9-.4-4.1-1.1-1.2-.7-2.2-1.7-2.9-3-.7-1.3-1-2.8-1-4.4 0-1.6.3-3.1 1-4.4.7-1.3 1.6-2.3 2.9-3 1.2-.7 2.6-1.1 4.1-1.1 1.5 0 2.9.4 4.1 1.1 1.2.7 2.2 1.7 2.9 3 .7 1.3 1 2.8 1 4.4 0 1.7-.3 3.1-1 4.4zM199.1 33.7c-1.2-.4-2.6-.9-4.4-1.3-1.3-.3-2.3-.6-3.1-.9-.8-.3-1.4-.6-1.9-1s-.7-1-.7-1.7c0-1 .4-1.8 1.3-2.4.9-.6 2.2-.9 3.9-.9 1.1 0 2.2.2 3.3.5 1.2.3 2.7 1 3.8 1.6l.1-4.2c-.8-.5-1.8-.8-2.9-1.1-1.4-.4-2.9-.6-4.3-.6-2.1 0-3.9.3-5.4 1-1.5.6-2.6 1.5-3.3 2.6-.7 1.1-1.1 2.3-1.1 3.6 0 1.6.4 2.8 1.2 3.8.8.9 1.8 1.6 2.9 2.1 1.1.4 2.6.9 4.5 1.3 1.3.3 2.3.6 3.1.9.8.3 1.4.6 1.9 1.1.5.4.7 1 .7 1.7 0 .9-.4 1.7-1.3 2.3-.9.6-2.2.9-4 .9-1.4 0-2.9-.2-4.3-.7-1.4-.5-3.2-1.6-4.2-2.4v4.7c.9.5 1.9 1 3.1 1.4 1.7.5 3.5.8 5.4.8 2.1 0 3.9-.3 5.4-1 1.5-.6 2.6-1.5 3.3-2.6.7-1.1 1.1-2.3 1.1-3.6 0-1.6-.4-2.8-1.2-3.7-.8-1.1-1.8-1.7-2.9-2.2zM208.1 25.6h8v21.1h4.5V25.6h8v-3.8h-20.5zM244.2 21.8l-6 13.8-4.9 11.1h4.6l3-7.2h10.9l3 7.2h4.7l-10.9-24.9h-4.4zm-1.6 13.8 3.8-9.2 3.8 9.2h-7.6zM334.2 21.8l-6 13.8-4.9 11.1h4.6l3-7.2h10.9l3 7.2h4.7l-10.9-25h-4.4zm-1.6 13.8 3.8-9.2 3.8 9.2h-7.6zM283.2 38.6l-13.3-16.8h-3.7v24.9h4.5V29.8L284 46.7h3.7V21.8h-4.5zM312.5 23.3c-1.9-1-4.1-1.6-6.5-1.6h-10v25h10c2.4 0 4.6-.5 6.5-1.6 1.9-1 3.4-2.5 4.4-4.4 1-1.9 1.6-4.1 1.6-6.5 0-2.5-.5-4.7-1.6-6.5-1-1.9-2.5-3.3-4.4-4.4zm.7 15.5c-.7 1.3-1.7 2.3-2.9 3-1.3.7-2.7 1.1-4.4 1.1h-5.6V25.7h5.6c1.7 0 3.2.4 4.4 1.1 1.3.7 2.3 1.7 2.9 3 .7 1.3 1 2.8 1 4.5 0 1.7-.3 3.2-1 4.5zM404.5 27.7c-1.1-1.9-2.5-3.4-4.4-4.4-1.9-1-4.1-1.6-6.5-1.6h-10.2v25h10c2.5 0 4.6-.5 6.5-1.6 1.9-1 3.4-2.5 4.4-4.4 1.1-1.9 1.6-4.1 1.6-6.5.1-2.4-.4-4.6-1.4-6.5zm-3.8 11.1c-.7 1.3-1.7 2.3-3 3-1.3.7-2.8 1.1-4.5 1.1H388V25.7h5.2c1.7 0 3.2.4 4.5 1.1 1.3.7 2.3 1.7 3 3 .7 1.3 1 2.8 1 4.5 0 1.7-.3 3.2-1 4.5zM108.9 22.8c-1.5-.7-3.2-1.1-5.2-1.1h-9.5v6.9h4.1v-2.9h5.2c1.9 0 3.3.4 4.3 1.3s1.5 2.1 1.5 3.7-.5 2.8-1.5 3.7c-1 .9-2.4 1.3-4.3 1.3h-5c-2.4 0-4.3 1.9-4.3 4.3v6.9h4.3v-5.5c0-.9.8-1.7 1.7-1.7h3.5c2 0 3.7-.4 5.2-1.1 1.5-.7 2.6-1.7 3.4-3.1.8-1.3 1.2-2.9 1.2-4.7 0-1.8-.4-3.4-1.2-4.7-.8-1.5-1.9-2.6-3.4-3.3zM374.8 35.5c.9-1.4 1.3-3 1.3-4.9 0-1.8-.4-3.4-1.2-4.7-.8-1.3-2-2.4-3.6-3.1-1.6-.7-3.4-1.1-5.5-1.1h-9.9v7h4.1v-3.1H365.6c2 0 3.4.4 4.5 1.3 1 .9 1.5 2.1 1.5 3.7s-.5 2.8-1.5 3.7c-1 .9-2.5 1.2-4.5 1.2h-4c-2.7 0-5 2.3-5 5.1v6h3.7V41c0-.8.6-1.5 1.4-1.5h4.9l4.9 7.3h4.8l-5.6-8.2c1.9-.7 3.2-1.7 4.1-3.1zM174.2 21.9l-6.2 9.4c-.9 1.5-3.1 1.5-4 0l-6.3-9.5c0-.1-.1-.1-.2-.1h-2.9c-.1 0-.2.1-.2.2v24.5c0 .1.1.2.2.2h3.3c.1 0 .2-.1.2-.2V31c0-.2.3-.3.4-.1l3.1 3.8c2.2 2.7 6.3 2.7 8.5 0l3.2-4c.1-.2.4-.1.4.1v15.7c0 .1.1.2.2.2h3.3c.1 0 .2-.1.2-.2V22c0-.1-.1-.2-.2-.2h-2.9s-.1 0-.1.1z"></path></g></svg> 